<?xml version="1.0" encoding="utf-8"?>
<!-- Generator: Adobe Illustrator 23.0.5, SVG Export Plug-In . SVG Version: 6.00 Build 0)  -->
<svg version="1.1" id="Layer_1" xmlns="http://www.w3.org/2000/svg" xmlns:xlink="http://www.w3.org/1999/xlink" x="0px" y="0px"
	 viewBox="0 0 700 700" style="enable-background:new 0 0 700 700;" xml:space="preserve">
<style type="text/css">
	.st0{fill:#FFFFFF;}
</style>
<g>
	<g>
		<path class="st0" d="M84.8,298.5v-7.2l29.5-3.2v7.5c0,14.8,7.5,23.7,19.7,23.7c12.2,0,19.7-7.5,19.7-19.4c0-12.7-5.2-22-28.1-43.7
			c-30.4-28.7-39.1-44.3-39.1-66.6c0-30.1,17.4-49.8,46.6-49.8c29.2,0,46.6,19.7,46.6,50.1v5.2l-29.5,3.2v-5.8
			c0-15.6-6.1-23.7-16.8-23.7c-10.7,0-16.8,6.7-16.8,19.4s6.4,22,28.1,43.7c29.5,29.5,39.1,44.3,39.1,66.6c0,29-20.3,49.8-49.5,49.8
			S84.8,327.5,84.8,298.5z"/>
		<path class="st0" d="M195.4,345.4V142.8h30.7v85.4h36.5v-85.4h30.7v202.6h-30.7v-88.3h-36.5v88.3H195.4z"/>
		<path class="st0" d="M309.8,299.4V188.8c0-29.2,19.7-48.9,49.2-48.9c29.5,0,49.2,19.7,49.2,48.9v110.6c0,29.2-19.7,48.9-49.2,48.9
			C329.5,348.3,309.8,328.6,309.8,299.4z M377.5,299.4V188.8c0-12.7-7.2-20-18.5-20c-11.3,0-18.5,7.2-18.5,20v110.6
			c0,12.7,7.2,20,18.5,20C370.3,319.4,377.5,312.1,377.5,299.4z"/>
		<path class="st0" d="M424.7,142.8h87.1v28.9h-56.5v56.4h44.9v28.9h-44.9v59.3h56.5v28.9h-87.1V142.8z"/>
		<path class="st0" d="M516.2,298.5v-7.2l29.5-3.2v7.5c0,14.8,7.5,23.7,19.7,23.7c12.2,0,19.7-7.5,19.7-19.4
			c0-12.7-5.2-22-28.1-43.7c-30.4-28.7-39.1-44.3-39.1-66.6c0-30.1,17.4-49.8,46.6-49.8c29.2,0,46.6,19.7,46.6,50.1v5.2l-29.5,3.2
			v-5.8c0-15.6-6.1-23.7-16.8-23.7s-16.8,6.7-16.8,19.4s6.4,22,28.1,43.7c29.5,29.5,39.1,44.3,39.1,66.6c0,29-20.3,49.8-49.5,49.8
			S516.2,327.5,516.2,298.5z"/>
		<path class="st0" d="M91.8,357.5h30.7v173.7h54.7v28.9H91.8V357.5z"/>
		<path class="st0" d="M249.8,515.2h-33l-6.7,44.9h-30.7l33.6-202.6h41.1l33.6,202.6h-31.3L249.8,515.2z M245.8,485.7l-12.4-84.8
			l-12.4,84.8H245.8z"/>
		<path class="st0" d="M396.3,495.3v16.5c0,29.2-18.8,48.3-48,48.3H297V357.5h48.6c29.2,0,48,19.1,48,48.3v10.7
			c0,18.2-7.2,31.3-20.6,38.8C387.9,462.3,396.3,475.9,396.3,495.3z M327.7,386.4v55h13.6c14.8,0,21.7-6.9,21.7-21.7v-14.5
			c0-11.9-6.9-18.8-18.8-18.8H327.7z M365.6,492.1c0-14.8-6.9-21.7-21.7-21.7h-16.2v60.8h19.1c11.9,0,18.8-7,18.8-18.8V492.1z"/>
		<path class="st0" d="M411.7,529.7h30.7v30.4h-30.7V529.7z"/>
	</g>
	<g>
		<path class="st0" d="M700,700H0V0h700V700z M10.6,689.4h678.8V10.6H10.6V689.4z"/>
	</g>
</g>
</svg>
